<?xml version="1.0" encoding="utf-8"?>
<!-- Generator: Adobe Illustrator 22.1.0, SVG Export Plug-In . SVG Version: 6.00 Build 0)  -->
<svg version="1.1" xmlns="http://www.w3.org/2000/svg" xmlns:xlink="http://www.w3.org/1999/xlink" x="0px" y="0px"
	 viewBox="0 0 1000 1000" style="enable-background:new 0 0 1000 1000;" xml:space="preserve">
<style type="text/css">
	.st0{display:none;}
	.st1{display:inline;}
	.st2{fill:#FF4A2E;stroke:#FF994F;stroke-width:6.4503;stroke-linecap:round;stroke-linejoin:round;stroke-miterlimit:10;}
	.st3{fill:none;stroke:#FB960A;stroke-width:5.4207;stroke-miterlimit:10;}
	.st4{fill:#E95B35;}
	.st5{fill:#E99E53;}
	.st6{fill:#E95B35;stroke:#E99E53;stroke-width:1.1037;stroke-miterlimit:10;}
	.st7{fill:#E35432;}
	.st8{fill:url(#SVGID_1_);}
	.st9{fill:#7B270D;}
	.st10{fill:#E9A816;}
	.st11{fill:#E96016;}
	.st12{fill:#A72A23;}
	.st13{fill:#7B270D;stroke:#E96016;stroke-width:1.6555;stroke-miterlimit:10;}
	.st14{fill:#E97C4B;}
	.st15{fill:url(#SVGID_2_);}
	.st16{fill:#DE472C;stroke:#E9A816;stroke-width:1.1037;stroke-miterlimit:10;}
	.st17{fill:#E38473;}
	.st18{fill:#E35432;stroke:#E96016;stroke-width:1.1037;stroke-miterlimit:10;}
	.st19{fill:url(#SVGID_3_);}
	.st20{fill:url(#SVGID_4_);}
	.st21{fill:#00AA7F;}
	.st22{fill:#288A87;}
	.st23{fill:#288A87;stroke:#00AA7F;stroke-width:2.2074;stroke-miterlimit:10;}
	.st24{fill:#E95A69;}
	.st25{fill:#E99378;}
	.st26{fill:#E95A69;stroke:#E99378;stroke-width:1.1037;stroke-miterlimit:10;}
	.st27{fill:#E3566B;}
	.st28{fill:url(#SVGID_5_);}
	.st29{fill:#96395D;}
	.st30{fill:#E98E3B;}
	.st31{fill:#E94B3B;}
	.st32{fill:#A73D71;}
	.st33{fill:#96395D;stroke:#E94B3B;stroke-width:1.6555;stroke-miterlimit:10;}
	.st34{fill:#E97670;}
	.st35{fill:url(#SVGID_6_);}
	.st36{fill:#DE4F73;stroke:#E98E3B;stroke-width:1.1037;stroke-miterlimit:10;}
	.st37{fill:#E397AA;}
	.st38{fill:#E3566B;stroke:#E94B3B;stroke-width:1.1037;stroke-miterlimit:10;}
	.st39{fill:url(#SVGID_7_);}
	.st40{fill:url(#SVGID_8_);}
</style>
<g id="Camada_1" class="st0">
	<g class="st1">
		<path class="st2" d="M738.7,587.5l1.3,0l2.4-60.6l-57-122.6l-112.3-65.9l-10.9,2.4L492,341l-46.5,10.1l-107.1,57.5l-52.4,104.5
			l19.7,128.3l60.3,96.5l0,0.1l0.1,0l0.1,0.2l0-0.1l74.1,25.5l0.8-1l48.3-5l63.2,12.8l139.8-75l0.2,0.1L738.7,587.5z"/>
		<g>
			<line class="st3" x1="565.8" y1="64.4" x2="562.1" y2="167.4"/>
			<line class="st3" x1="693.2" y1="188" x2="711.9" y2="159.9"/>
			<line class="st3" x1="740" y1="291" x2="835.5" y2="223.6"/>
			<line class="st3" x1="803.7" y1="380.9" x2="833.6" y2="365.9"/>
			<line class="st3" x1="854.2" y1="469" x2="961" y2="459.6"/>
			<line class="st3" x1="850.5" y1="568.2" x2="901.1" y2="586.9"/>
			<line class="st3" x1="822.4" y1="676.9" x2="906.7" y2="721.8"/>
			<line class="st3" x1="715.6" y1="794.9" x2="736.2" y2="817.3"/>
			<line class="st3" x1="614.5" y1="852.9" x2="632.3" y2="937.8"/>
			<line class="st3" x1="464.7" y1="881" x2="460.9" y2="920.3"/>
			<line class="st3" x1="329.8" y1="824.8" x2="282.1" y2="910.8"/>
			<line class="st3" x1="230.5" y1="719.9" x2="193.1" y2="751.8"/>
			<line class="st3" x1="165" y1="572" x2="43.2" y2="601.9"/>
			<line class="st3" x1="170.6" y1="420.3" x2="133.1" y2="401.5"/>
			<line class="st3" x1="278.9" y1="319.9" x2="196.8" y2="249.8"/>
			<line class="st3" x1="314.8" y1="204.9" x2="292.3" y2="171.1"/>
			<line class="st3" x1="415.8" y1="170.9" x2="393.5" y2="96.2"/>
		</g>
		<g>
			<g>
				<path class="st4" d="M668.4,441.3c-0.1-0.1-0.1-0.1-0.2-0.2l-83.3-31.8l100.2-4.5l55.2,118.7L668.4,441.3z"/>
				<path class="st5" d="M684.8,405.5l53.4,114.9L668.8,441c-0.1-0.1-0.3-0.2-0.4-0.3l-80.8-30.9L684.8,405.5 M685.5,404.4
					l-103.3,4.6l85.8,32.8l74.5,85.2L685.5,404.4L685.5,404.4z"/>
			</g>
			<polygon class="st6" points="692.5,695.6 585.6,658.4 585.9,556.7 739.3,586 			"/>
			<g>
				<polygon class="st4" points="586.6,556.1 618.1,465.8 741.9,527.2 739.5,586.8 				"/>
				<path class="st5" d="M618.4,466.6l122.9,61l-2.4,58.6l-151.7-30.4L618.4,466.6 M617.8,465l-31.9,91.5L740,587.5l2.4-60.6
					L617.8,465L617.8,465z"/>
			</g>
			<g>
				<polygon class="st7" points="285.9,513.1 338.3,408.6 417.1,472.5 389.4,608.7 343,589.4 				"/>
				<linearGradient id="SVGID_1_" gradientUnits="userSpaceOnUse" x1="285.9053" y1="508.672" x2="417.1024" y2="508.672">
					<stop  offset="0" style="stop-color:#E98711"/>
					<stop  offset="1" style="stop-color:#E9A816"/>
				</linearGradient>
				<path class="st8" d="M338.7,410.4l77.2,62.6l-27.3,134.2l-44.9-18.6L287.2,513L338.7,410.4 M338.3,408.6l-52.4,104.5l57,76.3
					l46.4,19.3l27.7-136.2L338.3,408.6L338.3,408.6z"/>
			</g>
			<g>
				<polygon class="st4" points="417.1,472.5 338.3,408.6 445.5,351.1 				"/>
			</g>
			<g>
				<polygon class="st9" points="344.2,590.5 388.8,609.1 386,667.1 				"/>
				<path class="st10" d="M345.4,591.7l42.8,17.8l-2.7,55.6L345.4,591.7 M343,589.4l43.5,79.6l2.9-60.3L343,589.4L343,589.4z"/>
			</g>
			<g>
				<polygon class="st9" points="306.1,641.2 286.8,515.2 342.5,589.8 385.9,669.1 365.9,736.9 				"/>
				<path class="st11" d="M287.7,517.3L342,590l43.3,79.1l-19.6,66.4l-59-94.5L287.7,517.3 M285.9,513.1l19.7,128.3l60.5,96.8
					l20.4-69.1L343,589.4L285.9,513.1L285.9,513.1z"/>
			</g>
			<g>
				<polygon class="st12" points="366.9,737.5 387.1,669.9 511.5,677.3 440,762.6 				"/>
				<path class="st11" d="M387.7,670.8l122.2,7.3l-70.2,83.6l-71.8-24.7L387.7,670.8 M386.5,669L365.9,738l74.4,25.6l73-87
					L386.5,669L386.5,669z"/>
			</g>
			<polygon class="st13" points="489.3,757.6 513.2,676.6 440.7,762.6 			"/>
			<g>
				<polygon class="st14" points="582.2,408.9 685.5,404.4 573.2,338.5 445.5,351.1 518.1,393.1 				"/>
				<linearGradient id="SVGID_2_" gradientUnits="userSpaceOnUse" x1="445.8418" y1="349.0574" x2="687.3681" y2="394.1986">
					<stop  offset="0" style="stop-color:#E98711"/>
					<stop  offset="1" style="stop-color:#E9A816"/>
				</linearGradient>
				<path class="st15" d="M572.9,339.6l108.7,63.8l-99.4,4.4l-63.8-15.8L449,351.8L572.9,339.6 M573.2,338.5l-127.7,12.6l72.7,42
					l64.1,15.8l103.3-4.6L573.2,338.5L573.2,338.5z"/>
			</g>
			<polygon class="st16" points="540.6,659.4 503.3,572.5 585.8,556.5 585.6,658.4 			"/>
			<polygon class="st17" points="389.4,608.7 503.3,572.5 461.9,523.5 			"/>
			<polygon class="st18" points="503.3,572.5 540.6,659.4 513.2,676.6 386.5,669 389.4,608.7 			"/>
			<g>
				<polygon class="st12" points="490,757.2 513.7,676.9 540.8,659.9 585.5,659 691,695.6 552.4,769.9 				"/>
				<path class="st11" d="M585.4,659.5l104.3,36.2l-137.3,73.6l-61.6-12.5l23.4-79.5l26.8-16.8L585.4,659.5 M585.6,658.4l-44.9,1
					l-27.4,17.2l-23.9,81.1l63.2,12.8l139.9-75L585.6,658.4L585.6,658.4z"/>
			</g>
			<g>
				<polygon class="st4" points="582.8,410.9 617.2,465.1 586.3,553.5 				"/>
				<path class="st5" d="M583.4,412.9l33.1,52.3l-29.8,85.3L583.4,412.9 M582.2,408.9l3.6,147.6l31.9-91.5L582.2,408.9L582.2,408.9z
					"/>
			</g>
			<polygon class="st14" points="668,441.7 617.8,465 742.5,526.9 			"/>
			<polygon class="st14" points="582.2,408.9 668,441.7 617.8,465 			"/>
			<polygon class="st13" points="552.5,770.5 513.2,676.6 489.3,757.6 			"/>
			<g>
				<polygon class="st7" points="343,589.4 461.9,523.5 389.4,608.7 				"/>
				<linearGradient id="SVGID_3_" gradientUnits="userSpaceOnUse" x1="349.9552" y1="551.9794" x2="452.937" y2="571.2266">
					<stop  offset="0" style="stop-color:#E98711"/>
					<stop  offset="1" style="stop-color:#E9A816"/>
				</linearGradient>
				<path class="st19" d="M457.1,527.4l-68,80l-43.6-18.1L457.1,527.4 M461.9,523.5L343,589.4l46.4,19.3L461.9,523.5L461.9,523.5z"
					/>
			</g>
			<g>
				<polygon class="st14" points="518.1,393.1 417.1,472.5 445.5,351.1 				"/>
				<linearGradient id="SVGID_4_" gradientUnits="userSpaceOnUse" x1="417.1024" y1="411.8076" x2="518.1488" y2="411.8076">
					<stop  offset="0" style="stop-color:#E98711"/>
					<stop  offset="1" style="stop-color:#E9A816"/>
				</linearGradient>
				<path class="st20" d="M446.2,352.8l70,40.4l-97.3,76.5L446.2,352.8 M445.5,351.1l-28.4,121.4l101-79.4L445.5,351.1L445.5,351.1z
					"/>
			</g>
			<polygon class="st4" points="518.1,393.1 585.8,556.5 503.3,572.5 			"/>
			<polygon class="st4" points="399.7,558 417.1,472.5 518.1,393.1 			"/>
			<polygon class="st16" points="503.3,572.5 518.1,393.1 399.7,558 461.9,523.5 			"/>
			<g>
				<polygon class="st4" points="519.1,393.9 581.7,409.4 585.2,553.6 				"/>
				<path class="st5" d="M520,394.7l61.1,15.1l3.5,140.8L520,394.7 M518.1,393.1l67.7,163.4l-3.6-147.6L518.1,393.1L518.1,393.1z"/>
			</g>
		</g>
		<g>
			<polygon class="st21" points="444.1,264.8 528.8,295.6 519.8,390.1 			"/>
			<g>
				<path class="st22" d="M446.7,266.9l80.9,29.4l-8.6,90.3L446.7,266.9 M441.6,262.7l3.2,5.4l72.3,119.7l3.5,5.7l0.6-6.6l8.6-90.3
					l0.2-1.7l-1.6-0.6l-80.9-29.4L441.6,262.7L441.6,262.7z"/>
			</g>
		</g>
		<polygon class="st23" points="630.3,226 521.5,389.4 522.9,269 		"/>
	</g>
</g>
<g id="rosa">
	<g>
		<g>
			<path class="st24" d="M671.6,436.9c-0.1-0.1-0.1-0.1-0.2-0.2L588.1,405l100.2-4.5l55.2,118.7L671.6,436.9z"/>
			<path class="st25" d="M688,401.1l53.4,114.9l-69.4-79.4c-0.1-0.1-0.3-0.2-0.4-0.3l-80.8-30.9L688,401.1 M688.7,399.9l-103.3,4.6
				l85.8,32.8l74.5,85.2L688.7,399.9L688.7,399.9z"/>
		</g>
		<polygon class="st26" points="695.7,691.2 588.8,654 589.1,552.2 742.6,581.6 		"/>
		<g>
			<polygon class="st24" points="589.8,551.7 621.3,461.4 745.2,522.8 742.8,582.4 			"/>
			<path class="st25" d="M621.6,462.2l122.9,61l-2.4,58.6l-151.7-30.4L621.6,462.2 M621,460.6l-31.9,91.5l154.2,30.9l2.4-60.6
				L621,460.6L621,460.6z"/>
		</g>
		<g>
			<polygon class="st27" points="289.2,508.7 341.6,404.2 420.4,468.1 392.6,604.3 346.2,585 			"/>
			<linearGradient id="SVGID_5_" gradientUnits="userSpaceOnUse" x1="289.158" y1="504.2625" x2="420.355" y2="504.2625">
				<stop  offset="0" style="stop-color:#E96A36"/>
				<stop  offset="1" style="stop-color:#E98E3B"/>
			</linearGradient>
			<path class="st28" d="M341.9,405.9l77.2,62.6l-27.3,134.2l-44.9-18.6l-56.5-75.5L341.9,405.9 M341.6,404.2l-52.4,104.5l57,76.3
				l46.4,19.3l27.7-136.2L341.6,404.2L341.6,404.2z"/>
		</g>
		<g>
			<polygon class="st24" points="420.4,468.1 341.6,404.2 448.7,346.7 			"/>
		</g>
		<g>
			<polygon class="st29" points="347.4,586.1 392,604.7 389.3,662.7 			"/>
			<path class="st30" d="M348.7,587.2l42.8,17.8l-2.7,55.6L348.7,587.2 M346.2,585l43.5,79.6l2.9-60.3L346.2,585L346.2,585z"/>
		</g>
		<g>
			<polygon class="st29" points="309.4,636.8 290,510.8 345.8,585.4 389.1,664.7 369.2,732.5 			"/>
			<path class="st31" d="M290.9,512.9l54.4,72.7l43.3,79.1L369,731.1l-59-94.5L290.9,512.9 M289.2,508.7L308.9,637l60.5,96.8
				l20.4-69.1L346.2,585L289.2,508.7L289.2,508.7z"/>
		</g>
		<g>
			<polygon class="st32" points="370.1,733.1 390.3,665.5 514.8,672.9 443.2,758.2 			"/>
			<path class="st31" d="M390.9,666.4l122.2,7.3l-70.2,83.6l-71.8-24.7L390.9,666.4 M389.7,664.6l-20.6,68.9l74.4,25.6l73-87
				L389.7,664.6L389.7,664.6z"/>
		</g>
		<polygon class="st33" points="492.6,753.2 516.5,672.2 444,758.2 		"/>
		<g>
			<polygon class="st34" points="585.5,404.5 688.7,399.9 576.4,334.1 448.7,346.7 521.4,388.7 			"/>
			<linearGradient id="SVGID_6_" gradientUnits="userSpaceOnUse" x1="449.0945" y1="344.6479" x2="690.6208" y2="389.7891">
				<stop  offset="0" style="stop-color:#E96A36"/>
				<stop  offset="1" style="stop-color:#E98E3B"/>
			</linearGradient>
			<path class="st35" d="M576.2,335.2L684.9,399l-99.4,4.4l-63.8-15.8l-69.6-40.2L576.2,335.2 M576.4,334.1l-127.7,12.6l72.7,42
				l64.1,15.8l103.3-4.6L576.4,334.1L576.4,334.1z"/>
		</g>
		<polygon class="st36" points="543.9,655 506.5,568.1 589.1,552.1 588.8,654 		"/>
		<polygon class="st37" points="392.6,604.3 506.5,568.1 465.1,519.1 		"/>
		<polygon class="st38" points="506.5,568.1 543.9,655 516.5,672.2 389.7,664.6 392.6,604.3 		"/>
		<g>
			<polygon class="st32" points="493.3,752.8 517,672.5 544,655.5 588.7,654.6 694.3,691.2 555.7,765.5 			"/>
			<path class="st31" d="M588.6,655.1l104.3,36.2l-137.3,73.6L494,752.4l23.4-79.5l26.8-16.8L588.6,655.1 M588.8,654l-44.9,1
				l-27.4,17.2l-23.9,81.1l63.2,12.8l139.9-75L588.8,654L588.8,654z"/>
		</g>
		<g>
			<polygon class="st24" points="586.1,406.5 620.4,460.7 589.6,549.1 			"/>
			<path class="st25" d="M586.7,408.5l33.1,52.3L590,546.1L586.7,408.5 M585.5,404.5l3.6,147.6l31.9-91.5L585.5,404.5L585.5,404.5z"
				/>
		</g>
		<polygon class="st34" points="671.2,437.3 621,460.6 745.7,522.5 		"/>
		<polygon class="st34" points="585.5,404.5 671.2,437.3 621,460.6 		"/>
		<polygon class="st33" points="555.8,766.1 516.5,672.2 492.6,753.2 		"/>
		<g>
			<polygon class="st27" points="346.2,585 465.1,519.1 392.6,604.3 			"/>
			<linearGradient id="SVGID_7_" gradientUnits="userSpaceOnUse" x1="353.2078" y1="547.5698" x2="456.1897" y2="566.8171">
				<stop  offset="0" style="stop-color:#E96A36"/>
				<stop  offset="1" style="stop-color:#E98E3B"/>
			</linearGradient>
			<path class="st39" d="M460.3,523l-68,80l-43.6-18.1L460.3,523 M465.1,519.1L346.2,585l46.4,19.3L465.1,519.1L465.1,519.1z"/>
		</g>
		<g>
			<polygon class="st34" points="521.4,388.7 420.4,468.1 448.7,346.7 			"/>
			<linearGradient id="SVGID_8_" gradientUnits="userSpaceOnUse" x1="420.355" y1="407.3981" x2="521.4014" y2="407.3981">
				<stop  offset="0" style="stop-color:#E96A36"/>
				<stop  offset="1" style="stop-color:#E98E3B"/>
			</linearGradient>
			<path class="st40" d="M449.5,348.4l70,40.4l-97.3,76.5L449.5,348.4 M448.7,346.7l-28.4,121.4l101-79.4L448.7,346.7L448.7,346.7z"
				/>
		</g>
		<polygon class="st24" points="521.4,388.7 589.1,552.1 506.5,568.1 		"/>
		<polygon class="st24" points="403,553.6 420.4,468.1 521.4,388.7 		"/>
		<polygon class="st36" points="506.5,568.1 521.4,388.7 403,553.6 465.1,519.1 		"/>
		<g>
			<polygon class="st24" points="522.3,389.5 584.9,405 588.5,549.2 			"/>
			<path class="st25" d="M523.3,390.3l61.1,15.1l3.5,140.8L523.3,390.3 M521.4,388.7l67.7,163.4l-3.6-147.6L521.4,388.7L521.4,388.7
				z"/>
		</g>
	</g>
	<g>
		<line class="st3" x1="565.8" y1="64.4" x2="562.1" y2="167.4"/>
		<line class="st3" x1="693.2" y1="188" x2="711.9" y2="159.9"/>
		<line class="st3" x1="740" y1="291" x2="835.5" y2="223.6"/>
		<line class="st3" x1="803.7" y1="380.9" x2="833.6" y2="365.9"/>
		<line class="st3" x1="854.2" y1="469" x2="961" y2="459.6"/>
		<line class="st3" x1="850.5" y1="568.2" x2="901.1" y2="586.9"/>
		<line class="st3" x1="822.4" y1="676.9" x2="906.7" y2="721.8"/>
		<line class="st3" x1="715.6" y1="794.9" x2="736.2" y2="817.3"/>
		<line class="st3" x1="614.5" y1="852.9" x2="632.3" y2="937.8"/>
		<line class="st3" x1="464.7" y1="881" x2="460.9" y2="920.3"/>
		<line class="st3" x1="329.8" y1="824.8" x2="282.1" y2="910.8"/>
		<line class="st3" x1="230.5" y1="719.9" x2="193.1" y2="751.8"/>
		<line class="st3" x1="165" y1="572" x2="43.2" y2="601.9"/>
		<line class="st3" x1="170.6" y1="420.3" x2="133.1" y2="401.5"/>
		<line class="st3" x1="278.9" y1="319.9" x2="196.8" y2="249.8"/>
		<line class="st3" x1="314.8" y1="204.9" x2="292.3" y2="171.1"/>
		<line class="st3" x1="415.8" y1="170.9" x2="393.5" y2="96.2"/>
	</g>
	<g>
		<polygon class="st21" points="444.1,264.8 528.8,295.6 519.8,390.1 		"/>
		<g>
			<path class="st22" d="M446.7,266.9l80.9,29.4l-8.6,90.3L446.7,266.9 M441.6,262.7l3.2,5.4l72.3,119.7l3.5,5.7l0.6-6.6l8.6-90.3
				l0.2-1.7l-1.6-0.6l-80.9-29.4L441.6,262.7L441.6,262.7z"/>
		</g>
	</g>
	<polygon class="st23" points="630.3,226 521.5,389.4 522.9,269 	"/>
</g>
</svg>
