<?xml version="1.0" encoding="utf-8"?>
<!-- Generator: Adobe Illustrator 22.1.0, SVG Export Plug-In . SVG Version: 6.00 Build 0)  -->
<svg version="1.1" id="NECTHARINA" xmlns="http://www.w3.org/2000/svg" xmlns:xlink="http://www.w3.org/1999/xlink" x="0px" y="0px"
	 viewBox="0 0 970 268" style="enable-background:new 0 0 970 268;" xml:space="preserve">
<style type="text/css">
	.st0{fill:#FFFFFF;}
</style>
<g>
	<g>
		<path class="st0" d="M735.3,66.8c-3.3-11.4-20-10.4-23.6-4.3c-5.4,8.9-0.4,13.2-9,33C729.3,102.7,739.2,80.2,735.3,66.8z"/>
		<path class="st0" d="M42.9,245.2c8.8,0.7,14.9-5.9,21.8-18.2c5.3-9.4,29.4-68.8,52.3-87.9c-4.3,15.7-24.7,46.5-28.9,61.9
			c-2.5,9.2-0.1,17,3.3,22.9c4.5,7.3,13.8,8.7,18.8,9.1c9.3,0.8,16.2-5.8,22.4-14c4.2,18,23.8,25.2,35.1,25.2
			c21.7,0,38.7-8.7,51.1-23.8c4.9,17,23.7,23.8,34.8,23.8c18.9,0,34.3-6.6,46.1-18.2c2.6,9.8,13.6,14.9,24.5,14.9
			c6.5,0,12.3-1.7,17.7-4.5c12.4,6.1,27.1,7.2,32.1-9.9c2-6.8,15.2-38.1,29.9-71.4c7.4-1.8,16.4-7.8,25.9-19
			c-7.4,17-25.2,59.6-30.6,73.6c-7,18.2,8.3,27.9,23.6,27.9c9.6,0,17.8-3.7,25.1-9.7c3.5,9.5,11.7,16.2,27.5,16.1
			c11.3-0.1,20.9-7.2,29-17c1.1,11.4,13.3,18.4,25.2,17.2c21.2-2.2,32.8-14.9,41.4-29.1c11.2-13.3,17.4-34.8,21.9-52.9
			c8.1,0.7,19.6-5.1,31.7-19.6c-7.4,17-25.2,59.6-30.6,73.6c-7,18.2,8.3,27.9,23.6,27.9c11.4,0,21-5.3,29.2-13.4
			c3.3,8.8,13.7,13.4,24.1,13.4c11.6,0,21.4-5.4,29.6-13.6c1.4,8.4,5.4,13.8,14.1,14.5c8.8,0.7,14.9-5.9,21.8-18.2
			c5.3-9.4,27.7-63.7,52.3-87.9c-4.3,15.7-24.7,46.5-28.9,61.9c-2.5,9.2-0.1,17,3.3,22.9c4.5,7.3,13.8,8.7,18.8,9.1
			c8.1,0.7,14.5-4.3,20.1-11c2.1,12.6,10.1,22.1,29,22c11.3-0.1,20.9-7.2,29-17c1.1,11.4,13.3,17.2,25.2,17.2
			c20.7,0,35.5-17.5,46.6-37.5l-5.9-2.8c-6.7,10.9-17.8,25.1-27.2,27.5c-9.7,2.3-11-3.3-9.5-9.3c10.4-30.5,25.1-53.2,23.4-58.8
			c-1.7-5.6-6.6-16-18.4-11.2c-11.8,4.8-18.7,29.7-29.5,56.3c-7,10-16.2,21-24.3,23c-9.7,2.3-12.1-19.1-11-27.2
			c5-39.8,35.7-55.4,54.1-62.1c15-3,24.8,9.9,32.1,5.6c5.6-3.3,7.3-25.3-2.9-28.5c-4.1-1.3-8.7-2.4-13.3-2c-0.1,0-0.1-0.1-0.3-0.1
			c-39.9,4.5-80.9,36.6-91.7,66.6c-2.8,7.8-5.2,16.7-5.9,25.3c-7.2,7.6-13.6,10.8-17.7,10.4c-5-0.4-5.5-5.3-5-11.7
			c1.8-23.4,30.2-58.9,33.1-64.8c2.9-6,3.6-8,3.7-9.7c0.8-10-4.6-17.8-17.6-23.2c-20.8-8.7-59.4,72.6-79.7,116.8
			c-1.1-8.5,12.2-53.3,24.9-79c5.4-11,30.5-38.6,8-40.6c-26.8-2.5-28.8,29.4-30.7,36.4c-4,11.8-16.2,59.2-19.8,75.6
			c-5.2,6-10.9,11-16.1,12.3c-9.7,2.3-11-3.3-9.5-9.3c10.1-30.5,34.4-82.7,34.4-82.7l-0.1,0c0.7-1.4,1-2.8,0.9-4.4
			c-0.7-8.5-17.9-20.3-27.2-9.8c-5.7,6.4-8.4,16-8,25.7c-9.5,21.6-22.7,52.1-27.7,65.3c-0.5,1.4-0.9,2.6-1.2,3.9
			c-5,5.5-10.3,10-15.3,11.2c-9.7,2.3-11-3.3-9.5-9.3c10.4-30.5,34-83.6,34-83.6s-16.7-8.2-19.4-9.3c-2.5-0.9-5.4-1.6-7.7,1
			c-29.8,33.4-30.1,5.9-11.3-6.1c3.5,0.3,6.4,0,8.4-2.2c4.4-4.8,1.2-20.1-9.5-20.2c-9.6-0.1-19.1,4.9-24.9,11.9
			c-6.1,7.4-12.8,40.4-5.2,46.2c-2.8,15-9.6,30.1-15.2,40.6c-9,14.8-15.7,22.8-27.9,31.1c-8.3,5.6-11-3.3-9.5-9.3
			c10.4-30.5,25.1-53.2,23.4-58.8c-1.7-5.6-6.6-16-18.4-11.2c-11.8,4.8-18.7,29.7-29.5,56.3c-7,10-16.2,21-24.3,23
			c-9.7,2.3-12.1-19.1-11-27.2c5-39.8,35.7-55.4,54.1-62.1c15-3,24.8,9.9,32.1,5.6c5.6-3.3,7.3-25.3-2.9-28.5
			c-4.1-1.3-8.7-2.4-13.3-2c-0.1,0-0.1-0.1-0.2-0.1c-39.9,4.5-80.9,36.6-91.7,66.6c-3.9,10.9-7,24.2-5.9,35.5
			c-3.3,2.8-6.6,4.9-9.7,5.7c-9.7,2.3-11-3.3-9.5-9.3c10.4-30.5,34-83.6,34-83.6s-16.7-8.2-19.4-9.3c-2.5-0.9-5.4-1.6-7.7,1l-23,16
			c7.6-17,15.3-33.6,21.6-46.8c55.8,4.1,111.3,1,165.2-17.2c6-2,3.4-11.6-2.6-9.6c-51.9,17.5-104.6,20.4-157.8,16.9
			c2.1-4.1,3.9-7.7,5.5-10.5c6.2-7.5,10.2-17.8,9.6-26.3c-1-14-21.8-15.1-27.5-8.7c-2.5,5.4-8.9,21.7-17.4,43
			c-6.7-0.7-13.4-1.5-20.1-2.3c1.2-2.6,2.1-4.5,2.7-5.6c6.6-13.2,16.5-33,16.5-33c-0.7-8.5-21.8-19.8-27-6.7
			c-1.2,3-8.3,19.5-17.8,41.4c-72.8-23-114.5,12.9-110.7,26c3.3,11.4,20,10.4,23.6,4.3c3.7-6.1,13-17.3,40.7-23.7
			c2.4,0,4.7,0.1,7,0.2c11.7,0.5,23.4,1.7,35,3.1c-21,48.2-50,114.6-56.5,128.7c-22,23.1-59.2,27.2-52.2-8.7c0,0,0.1,0,0.1,0
			c0.9-3.7,2.4-12.8,5.5-19.4c3.7-12.2,18.3-41.5,36-39.4c3.5,0.4,4.8,1.9,5.4,6.1c1.7,10.1-4.9,26.7-21.4,33.3c0,0,1.6,11.8,7.9,7
			c31.7-23.5,30.9-43.4,29.6-51.6c-1.2-8.2-8-21.8-19.5-19.9c-41.2,6.5-65.9,62.2-69.8,71.2c-3.1,6.9-4.6,13-4.8,18.4
			c-21.5,25.7-62.2,31.8-54.9-5.6c63.2-10.5,63.2-64,63.2-64s-0.2-0.1-0.3-0.2c0-10.3-8.2-20.2-19.2-19.8
			c-41.7,1.5-65.9,62.2-69.8,71.2c-2.5,5.5-3.9,10.5-4.5,15c-8.2,9.4-15.5,13.4-20,13c-5-0.4-5.5-5.3-5-11.7
			c1.8-23.4,30.2-58.9,33.1-64.8c2.9-6,3.6-8,3.7-9.7c0.7-10-4.7-17.8-17.6-23.2c-20.8-8.7-59.4,72.6-79.7,116.8
			c3.2-36.1,20.9-77.2,22.9-83.1s23.4-35.1,10.1-36.6c-26.7-3-28.8,29.4-30.8,36.4c-4.4,13.2-19.1,70.7-20.7,80
			C28.4,236,31.9,244.3,42.9,245.2z M328.5,218.9c8.3-25,39.9-98.5,54.6-131.4c5.5,0.7,11.1,1.5,16.6,2.1c1.3,0.2,2.6,0.3,3.9,0.4
			c-18.2,45.4-43.4,107.1-59.2,135c-2.2,1.5-4.3,2.6-6.4,3.2C328.3,230.5,326.9,225,328.5,218.9z M204.5,145.6
			c3.5,0.4,5.4,1.9,5.4,6.1c0.1,10.2-22,38-37.4,38.2c-2.7,0-4.2,0-5-0.4C167.3,183.7,183.7,143.1,204.5,145.6z"/>
	</g>
</g>
</svg>
